HIERARCHY
ROOT Hips
{
	OFFSET -0.001795 -0.223333 0.028219
	CHANNELS 6 Xposition Yposition Zposition Zrotation Yrotation Xrotation 
	JOINT LeftUpLeg
	{
		OFFSET 0.069520 -0.091406 -0.006815
		CHANNELS 3 Zrotation Yrotation Xrotation
		JOINT LeftLeg
		{
			OFFSET 0.034277 -0.375199 -0.004496
			CHANNELS 3 Zrotation Yrotation Xrotation
			JOINT LeftFoot
			{
				OFFSET -0.013596 -0.397961 -0.043693
				CHANNELS 3 Zrotation Yrotation Xrotation
				JOINT LeftToe
				{
					OFFSET 0.026358 -0.055791 0.119288
					CHANNELS 3 Zrotation Yrotation Xrotation
					End Site
					{
						OFFSET 0.000000 0.000000 0.000000
					}
				}
			}
		}
	}
	JOINT RightUpLeg
	{
		OFFSET -0.067670 -0.090522 -0.004320
		CHANNELS 3 Zrotation Yrotation Xrotation
		JOINT RightLeg
		{
			OFFSET -0.038290 -0.382569 -0.008850
			CHANNELS 3 Zrotation Yrotation Xrotation
			JOINT RightFoot
			{
				OFFSET 0.015774 -0.398415 -0.042312
				CHANNELS 3 Zrotation Yrotation Xrotation
				JOINT RightToe
				{
					OFFSET -0.025372 -0.048144 0.123348
					CHANNELS 3 Zrotation Yrotation Xrotation
					End Site
					{
						OFFSET 0.000000 0.000000 0.000000
					}
				}
			}
		}
	}
	JOINT Spine
	{
		OFFSET -0.002533 0.108963 -0.026696
		CHANNELS 3 Zrotation Yrotation Xrotation
		JOINT Spine1
		{
			OFFSET 0.005487 0.135180 0.001092
			CHANNELS 3 Zrotation Yrotation Xrotation
			JOINT Spine2
			{
				OFFSET 0.001457 0.052922 0.025425
				CHANNELS 3 Zrotation Yrotation Xrotation
				JOINT Neck
				{
					OFFSET -0.002778 0.213870 -0.042857
					CHANNELS 3 Zrotation Yrotation Xrotation
					JOINT Head
					{
						OFFSET 0.005152 0.064970 0.051349
						CHANNELS 3 Zrotation Yrotation Xrotation
						End Site
						{
							OFFSET 0.000000 0.000000 0.000000
						}
					}
				}
				JOINT LeftShoulder
				{
					OFFSET 0.078845 0.121749 -0.034090
					CHANNELS 3 Zrotation Yrotation Xrotation
					JOINT LeftArm
					{
						OFFSET 0.090977 0.030469 -0.008868
						CHANNELS 3 Zrotation Yrotation Xrotation
						JOINT LeftForeArm
						{
							OFFSET 0.259612 -0.012772 -0.027456
							CHANNELS 3 Zrotation Yrotation Xrotation
							JOINT LeftHand
							{
								OFFSET 0.249234 0.008986 -0.001171
								CHANNELS 3 Zrotation Yrotation Xrotation
								End Site
								{
									OFFSET 0.000000 0.000000 0.000000
								}
							}
						}
					}
				}
				JOINT RightShoulder
				{
					OFFSET -0.081759 0.118833 -0.038615
					CHANNELS 3 Zrotation Yrotation Xrotation
					JOINT RightArm
					{
						OFFSET -0.096012 0.032551 -0.009143
						CHANNELS 3 Zrotation Yrotation Xrotation
						JOINT RightForeArm
						{
							OFFSET -0.253742 -0.013329 -0.021401
							CHANNELS 3 Zrotation Yrotation Xrotation
							JOINT RightHand
							{
								OFFSET -0.255298 0.007772 -0.005559
								CHANNELS 3 Zrotation Yrotation Xrotation
								End Site
								{
									OFFSET 0.000000 0.000000 0.000000
								}
							}
						}
					}
				}
			}
		}
	}
}
MOTION
Frames: 16
Frame Time: 0.050000
0.000000 0.907837 0.000000 -2.840477 -11.414563 1.802013 5.470708 0.853093 12.170933 4.218425 -1.243578 14.120324 -0.266270 0.216496 2.370563 0.000000 0.000000 0.000000 -4.929565 1.979285 -22.817572 1.605441 0.627912 16.128690 -1.951837 -10.274684 12.287307 0.000000 0.000000 0.000000 2.089267 -0.338086 5.571836 -1.500112 0.853816 3.867853 2.028507 -9.114283 4.941469 -2.271565 1.351082 -6.261645 0.000000 0.000000 0.000000 -22.474760 -0.924178 2.687030 -47.156681 -6.573277 -4.135732 -23.678710 -56.289159 18.346946 0.000000 0.000000 0.000000 18.100345 2.768841 -4.032991 50.080886 -15.531641 -10.491757 18.454353 41.239418 5.949307 0.000000 0.000000 0.000000 
-0.032843 0.910966 0.039044 -3.882677 -11.501999 3.571359 8.194542 0.391699 8.481382 3.066914 -1.066904 22.916129 0.083982 2.056416 6.162348 0.000000 0.000000 0.000000 -3.277427 2.160843 -22.173841 3.794977 0.196891 17.243193 -2.838749 -10.800270 8.768072 0.000000 0.000000 0.000000 4.047609 -0.376922 4.111640 -2.855564 1.650128 5.381555 4.421725 -8.430351 2.842305 -4.490884 3.098776 -5.401868 0.000000 0.000000 0.000000 -25.438321 0.377523 2.044324 -46.554954 -3.806259 -5.183727 -27.302576 -53.152827 18.949716 0.000000 0.000000 0.000000 14.822932 1.591678 -3.579238 50.803464 -14.166783 -10.350153 20.231166 39.154950 6.201263 0.000000 0.000000 0.000000 
-0.061884 0.916784 0.074441 -4.322555 -11.525443 3.463451 7.878793 0.172044 2.945809 4.895417 -1.776414 35.005174 0.262350 4.368373 13.621719 0.000000 0.000000 0.000000 -1.433808 2.109615 -19.796151 4.298944 0.134627 18.282430 -3.175161 -10.762488 6.780576 0.000000 0.000000 0.000000 5.621138 -0.614000 6.166583 -2.412838 1.299468 3.186714 3.165574 -6.400985 4.190938 -3.831756 2.564134 -7.424776 0.000000 0.000000 0.000000 -24.584815 1.152930 0.847063 -48.749897 -2.511621 -5.692216 -21.911389 -45.799322 13.180315 0.000000 0.000000 0.000000 14.431050 2.774042 -2.489692 50.137865 -11.271712 -9.071431 21.112481 39.576200 6.886664 0.000000 0.000000 0.000000 
-0.085618 0.918435 0.106639 -4.401009 -11.142336 3.494993 7.220945 -0.066832 -4.143513 4.219090 -1.359265 47.659175 2.764217 8.785653 14.562108 0.000000 0.000000 0.000000 -0.858644 1.804741 -16.969529 5.656175 -0.222267 17.637201 -3.638928 -10.834855 4.421122 0.000000 0.000000 0.000000 6.052287 -0.674497 6.548311 -2.395298 1.277952 3.061654 2.852294 -5.702401 5.297977 -4.532635 3.085970 -7.970675 0.000000 0.000000 0.000000 -24.216885 0.291770 1.153638 -48.969414 -1.301508 -6.196903 -17.803391 -44.568706 10.847458 0.000000 0.000000 0.000000 15.039082 6.571396 -0.674401 47.690441 -7.513312 -6.969131 19.444479 41.969964 6.919949 0.000000 0.000000 0.000000 
-0.104821 0.921869 0.137781 -4.478557 -11.771076 3.115904 6.321050 -0.259045 -11.410503 1.250576 1.061874 55.980800 5.313834 12.373866 10.155746 0.000000 0.000000 0.000000 0.349424 1.348912 -12.523521 5.241838 -0.192845 14.659471 -3.369182 -9.553212 2.768176 0.000000 0.000000 0.000000 5.864535 -0.843374 9.096543 -3.575907 1.900572 3.164658 4.614782 -3.077324 5.394911 -4.203001 2.921659 -9.202000 0.000000 0.000000 0.000000 -23.851343 -0.523087 1.063872 -49.872840 0.042363 -6.705841 -16.111418 -42.259047 9.291591 0.000000 0.000000 0.000000 13.661520 7.125816 0.239657 47.143873 -1.709084 -4.792302 18.611623 43.626796 7.152797 0.000000 0.000000 0.000000 
-0.120799 0.924026 0.170044 -4.404617 -11.647175 3.094963 5.194687 -0.502089 -18.973840 -2.016747 3.539633 59.263986 6.225786 13.022173 0.663287 0.000000 0.000000 0.000000 1.307055 1.010085 -9.467433 4.536382 -0.097416 13.457519 -3.431697 -9.204044 1.730854 0.000000 0.000000 0.000000 5.681163 -0.925042 10.484210 -3.206683 1.645562 2.046227 4.489920 0.078773 6.710038 -3.438730 2.606435 -10.121124 0.000000 0.000000 0.000000 -23.509940 -2.303802 1.196214 -49.585899 1.208704 -7.006239 -16.405450 -40.174140 8.495316 0.000000 0.000000 0.000000 12.463580 8.764884 1.795344 47.628894 3.093446 -3.311388 15.536553 46.907692 7.078004 0.000000 0.000000 0.000000 
-0.134610 0.924742 0.204352 -3.987053 -11.153987 2.928453 4.184172 -0.763340 -26.077830 -4.635526 4.664988 55.618493 8.009894 16.444829 -0.446569 0.000000 0.000000 0.000000 1.262303 0.589557 -5.990921 4.671576 -0.187973 11.811042 -3.573938 -9.093476 0.844382 0.000000 0.000000 0.000000 5.601535 -1.003522 11.712028 -4.133405 2.124664 2.278142 5.145733 3.264888 7.176567 -2.250944 2.072745 -10.963138 0.000000 0.000000 0.000000 -23.776538 -4.752322 1.612938 -49.822727 3.188047 -7.615348 -17.643883 -41.377599 8.853007 0.000000 0.000000 0.000000 12.430772 9.446535 2.766315 46.624741 7.449790 -1.793885 10.672761 49.463334 6.024742 0.000000 0.000000 0.000000 
-0.145986 0.920463 0.242159 -3.505640 -10.085768 1.893944 4.133418 -0.864625 -30.147060 -6.671864 3.873801 41.813726 12.221183 22.880472 12.116811 0.000000 0.000000 0.000000 1.469518 0.230456 -2.755478 4.155620 -0.099065 12.762827 -4.303471 -10.031730 -0.991066 0.000000 0.000000 0.000000 5.078436 -1.063779 13.687236 -3.921380 2.008447 2.305512 5.142266 5.873522 7.598695 -1.312071 1.815535 -13.051810 0.000000 0.000000 0.000000 -25.053086 -7.092089 1.916495 -48.503875 4.631823 -7.733928 -18.588888 -43.121972 9.220656 0.000000 0.000000 0.000000 12.033424 12.182799 4.662452 45.900605 11.235486 -0.556653 0.687209 53.394773 2.406658 0.000000 0.000000 0.000000 
-0.155032 0.913029 0.284435 -3.192265 -9.263791 1.301441 3.947775 -1.001295 -31.913293 -4.312803 1.075614 20.249074 25.477191 29.804372 53.542830 0.000000 0.000000 0.000000 1.431941 -0.171242 1.066792 3.798248 -0.047915 13.059415 -4.603514 -9.502167 -4.097604 0.000000 0.000000 0.000000 4.706673 -1.088504 14.807109 -4.590329 2.353138 2.451990 5.439283 7.965163 7.775172 -0.278523 1.522667 -14.970938 0.000000 0.000000 0.000000 -25.350124 -9.019855 2.175317 -47.968577 6.273920 -8.030390 -19.514520 -45.329737 9.787382 0.000000 0.000000 0.000000 12.961954 14.999887 6.588112 42.798698 15.450084 0.704134 -9.142874 53.331316 -1.895157 0.000000 0.000000 0.000000 
-0.161213 0.901646 0.332098 -2.885973 -7.946294 0.369117 3.786399 -1.170230 -31.229610 -1.509730 0.117808 5.075359 15.844210 23.677870 47.939459 0.000000 0.000000 0.000000 1.679267 -0.603050 5.193340 2.810153 0.150261 14.136949 -5.117288 -9.784890 -7.032849 0.000000 0.000000 0.000000 3.978380 -1.101255 16.668108 -4.747491 2.372386 1.492827 5.239226 9.264379 8.145481 -0.726191 2.110952 -16.327295 0.000000 0.000000 0.000000 -26.708639 -9.822377 1.852475 -45.067342 7.681637 -7.772629 -23.180484 -48.136888 11.851356 0.000000 0.000000 0.000000 14.587769 18.076449 8.791874 40.062940 19.647500 1.748756 -14.794709 53.827892 -4.388052 0.000000 0.000000 0.000000 
-0.164597 0.889410 0.385517 -2.583887 -7.152522 -0.680607 3.186307 -1.401251 -30.815629 -0.248752 -0.032522 2.301974 7.622891 16.578553 30.068302 0.000000 0.000000 0.000000 0.875624 -0.989221 10.132020 3.028296 0.095776 14.746867 -5.100710 -9.117936 -8.757999 0.000000 0.000000 0.000000 2.462194 -0.931782 17.920129 -5.385117 2.718964 1.899081 5.905859 10.600725 7.694344 0.327949 1.832583 -18.503212 0.000000 0.000000 0.000000 -25.414226 -11.523920 2.315306 -45.388525 7.874952 -7.730123 -24.816106 -50.572759 13.010860 0.000000 0.000000 0.000000 16.757687 20.382675 10.819424 36.216837 23.412438 2.372941 -19.090325 53.947813 -6.375797 0.000000 0.000000 0.000000 
-0.164869 0.878340 0.445379 -2.503284 -6.247442 -0.673064 3.399244 -1.467271 -32.225543 -1.621403 0.090102 8.402770 7.323370 16.126034 22.880211 0.000000 0.000000 0.000000 -0.546700 -0.969323 11.870378 4.365704 -0.144216 18.656769 -4.393305 -8.554194 -5.814911 0.000000 0.000000 0.000000 1.351960 -0.764988 17.450051 -6.572283 3.383915 2.897783 6.939925 11.370363 8.123386 -1.062777 2.822544 -19.467433 0.000000 0.000000 0.000000 -25.241967 -13.033950 2.845409 -43.751778 7.128349 -7.035784 -28.461715 -52.577782 15.268047 0.000000 0.000000 0.000000 16.630291 24.310110 13.238632 34.122011 26.058357 2.800414 -22.162364 53.772362 -7.833724 0.000000 0.000000 0.000000 
-0.161376 0.873038 0.510818 -2.045639 -5.325796 -0.188516 3.298997 -1.665857 -34.633591 -4.267336 0.784488 18.485795 8.060470 17.091783 18.237436 0.000000 0.000000 0.000000 -3.338022 -0.562827 11.109957 6.302051 -0.637932 26.010572 -2.383969 -5.475135 -0.983861 0.000000 0.000000 0.000000 0.461373 -0.623680 16.590521 -7.598395 3.944876 3.475714 6.594970 12.314871 8.124028 -0.177682 2.480039 -19.497557 0.000000 0.000000 0.000000 -23.921095 -15.916998 4.116045 -44.056961 5.573890 -6.431261 -29.103053 -55.087437 16.136982 0.000000 0.000000 0.000000 17.072600 25.700680 14.574329 33.186383 27.431842 2.920711 -20.459253 51.824415 -6.581328 0.000000 0.000000 0.000000 
-0.154541 0.872017 0.576597 -1.543039 -2.795017 0.281959 1.483848 -2.583856 -35.809622 -4.907086 1.027798 26.823020 8.006858 17.139122 12.896139 0.000000 0.000000 0.000000 -4.334484 -0.213656 5.867940 6.795807 -1.095676 39.933454 -0.281904 -4.797555 9.216674 0.000000 0.000000 0.000000 -0.642844 -0.533680 17.221457 -8.227992 4.228530 3.622266 7.553485 12.393535 8.091358 -1.354038 3.252809 -19.464121 0.000000 0.000000 0.000000 -24.465099 -17.518655 4.688655 -42.252924 4.156678 -5.506316 -34.003651 -57.708626 19.678965 0.000000 0.000000 0.000000 16.971358 27.177116 15.675488 32.859879 27.409837 2.842697 -22.349059 50.460249 -7.210519 0.000000 0.000000 0.000000 
-0.146367 0.873571 0.638646 -0.291497 1.273654 0.063618 -0.593064 -3.535037 -34.401649 -6.838937 1.476879 31.737743 7.348053 16.068128 7.723733 0.000000 0.000000 0.000000 -6.782380 0.184333 -1.193066 8.217355 -3.392411 54.906392 0.404307 -6.142596 18.486351 0.000000 0.000000 0.000000 -1.531216 -0.563607 19.214090 -7.869260 3.971267 3.850132 6.916820 12.200485 7.510226 -0.067649 2.574396 -17.904248 0.000000 0.000000 0.000000 -23.625742 -17.844415 4.266290 -41.874030 3.539585 -5.066363 -38.607307 -61.389393 23.555965 0.000000 0.000000 0.000000 17.596410 26.856217 16.173595 33.252496 27.427238 2.831937 -21.861090 49.477952 -6.723592 0.000000 0.000000 0.000000 
-0.138175 0.879730 0.695827 0.218859 5.790491 -0.048987 -3.350632 -4.166870 -30.557502 -5.780559 0.491555 32.699947 6.179252 13.524005 3.026757 0.000000 0.000000 0.000000 -8.310827 0.316150 -10.498958 8.289533 -6.283236 65.827568 -3.431928 -11.336021 12.586678 0.000000 0.000000 0.000000 -1.453098 -0.813959 20.787826 -7.918218 3.928207 4.769513 7.171655 10.932666 7.502608 -1.089942 3.210049 -17.685677 0.000000 0.000000 0.000000 -21.203473 -17.062038 3.810543 -43.207747 2.366999 -5.024541 -48.734099 -65.672171 32.268522 0.000000 0.000000 0.000000 18.375787 26.557811 16.443117 34.835856 28.128031 3.221107 -21.564726 47.529655 -6.284954 0.000000 0.000000 0.000000 
